<?xml version="1.0" encoding="UTF-8"?>
<svg width="800" height="800" viewBox="0 0 800 800" xmlns="http://www.w3.org/2000/svg" role="img" aria-label="The Energy Nest icon">
  <title>The Energy Nest icon</title>
  
  
  <defs>
    <linearGradient id="iconBg" x1="0" y1="0" x2="1" y2="1">
      <stop offset="0%" stop-color="#FFFDF9"/>
      <stop offset="55%" stop-color="#F7F3EE"/>
      <stop offset="100%" stop-color="#EDE3D7"/>
    </linearGradient>
    <radialGradient id="iconHalo" cx="50%" cy="50%" r="50%">
      <stop offset="0%" stop-color="#D6AD57" stop-opacity="0.90"/>
      <stop offset="55%" stop-color="#D6AD57" stop-opacity="0.24"/>
      <stop offset="100%" stop-color="#D6AD57" stop-opacity="0"/>
    </radialGradient>
  </defs>
  <rect width="800" height="800" rx="180" fill="url(#iconBg)"/>
  <circle cx="400" cy="396" r="180" fill="url(#iconHalo)"/>
  <circle cx="400" cy="396" r="290" fill="#FFFDF9" fill-opacity="0.10"/>
  <g transform="translate(220 226) scale(2.95)">
    
    <path d="M20 72c8 18 32 28 40 28s32-10 40-28" fill="none" stroke="#4E786E" stroke-width="5" stroke-linecap="round" opacity="1"/>
    <path d="M28 64c12 10 24 16 32 16s20-6 32-16" fill="none" stroke="#D6AD57" stroke-width="3.2" stroke-linecap="round" opacity="0.9"/>
    <path d="M24 56c12 12 24 20 36 20s24-8 36-20" fill="none" stroke="#B08BC9" stroke-width="2.4" stroke-linecap="round" opacity="0.55"/>
    <path d="M32 82c10-8 18-12 28-12s18 4 28 12" fill="none" stroke="#7C96A7" stroke-width="2" stroke-linecap="round" opacity="0.4"/>
    <circle cx="60" cy="54" r="17" fill="url(#nestGlow)"/>
    <circle cx="60" cy="54" r="4.4" fill="#FFFDF9"/>
    <path d="M24 46c2-11 8-17 16-23" fill="none" stroke="#D6AD57" stroke-width="2.5" stroke-linecap="round" opacity="0.55"/>
    <path d="M96 46c-2-11-8-17-16-23" fill="none" stroke="#D6AD57" stroke-width="2.5" stroke-linecap="round" opacity="0.55"/>
  
  </g>
  
</svg>
